<svg t="1688541545018" class="icon" viewBox="0 0 1024 1024" version="1.1" xmlns="http://www.w3.org/2000/svg" p-id="863" width="200" height="200"><path d="M1011.855021 1023.984849h-13.466953-143.854356-13.404893c-6.702446 0-12.163699-5.771551-12.163698-12.877386 0-7.136864 5.461253-12.908415 12.163698-12.908415h13.404893c4.933745-25.351382 23.582681-45.117393 47.537721-50.268347v-27.058024H121.857038v27.058024c23.955039 5.150954 42.635006 24.916965 47.568751 50.268347h13.404892c6.733476 0 12.194729 5.771551 12.194729 12.908415 0 7.105834-5.461253 12.908415-12.194729 12.908416H169.425789 25.571432 12.16654C5.464093 1023.984849 0.002841 1018.213298 0.002841 1011.107463c0-7.136864 5.461253-12.908415 12.163699-12.908415h13.404892c4.902715-25.351382 23.582681-45.117393 47.568751-50.268347v-27.058024H24.361268c-13.466952 0-24.389457-11.574132-24.389457-25.7858 0-14.211669 10.922505-25.75477 24.389457-25.75477h48.716855V96.037367c0-14.242698 10.953535-25.81683 24.389458-25.81683 13.435922 0 24.358427 11.574132 24.358427 25.7858v42.790155H902.040403V96.037367c0-14.211669 10.953535-25.75477 24.420487-25.754771 13.435922 0 24.358427 11.543102 24.358428 25.754771v773.26371h48.716855c13.466952 0 24.420487 11.574132 24.420487 25.75477 0 14.242698-10.953535 25.81683-24.389458 25.81683h-48.716854v27.058024c23.89298 5.150954 42.572946 24.916965 47.506691 50.268347h13.466952c6.702446 0 12.132669 5.771551 12.132669 12.908415 0 7.105834-5.430223 12.908415-12.132669 12.908416zM121.857038 190.368092v678.964015H902.040403V212.057953v-21.720891H121.857038zM888.542421 854.251603H845.255789l-148.508833-159.276189 139.789447-144.692162 51.974988 50.206287V854.251603z m-85.735459 0h-0.062059-259.750824l132.187135-136.903672 127.563689 136.841612 0.062059 0.06206z m-317.249124 0h-0.062059-251.589975l123.653928-134.917762 127.936047 134.855702 0.062059 0.06206z m-293.697472 0H138.830362v-0.434418h-0.217208v-228.72098l0.217208-0.248238v-11.605162l60.570256-60.539225 136.717492 144.102595-144.288774 157.445428z m322.369048-14.894325h-0.03103l-135.662477-142.923462 137.369119-149.905175 138.082805 148.105445-139.727387 144.692162-0.03103 0.062059z m-157.07307-165.513188l-135.817627-143.07861 144.816282-144.847311 128.525613 137.865596-137.493238 150.029295v0.03103z m318.428258-1.613552l-138.672372-148.632952 127.718837-139.386059 149.594878 144.474953-138.610313 143.544058zM138.706243 589.815273v-117.603109l0.217209 0.248239v16.476847l39.159663 41.269693-39.128633 39.128633-0.03103 20.293518-0.186179 0.155149-0.03103 0.03103z m749.867208-32.488247l-0.06206-0.03103-30.378217-29.323202 30.440277-31.557351V557.358056z m-688.552236-49.027153l-0.03103-0.06206-61.128793-64.386926v-6.609357l-0.155149-0.217209v-224.966368h0.186179l65.069583-0.062059 141.06167 151.239459-144.971431 145.00246-0.031029 0.03103z m635.801501-1.892821v-0.062059l-150.184444-144.971431 136.903671-149.377668h66.031508v239.767603l-52.719705 54.612526z m-320.10387-5.585371l-127.594718-136.779552 125.577779-125.577779 128.649732 124.212466-126.601763 138.144865h-0.03103zM366.930745 341.328283v-0.03103L246.348772 211.995894h239.860693l5.150954 4.902715L366.961775 341.328283z m296.335009-1.520462l-127.656778-123.25054 4.561387-4.561387h240.233052l-117.075601 127.780897-0.03103 0.03103z m225.183577-222.67016h-0.093089-358.518817V0h327.457943c17.128474 0 31.060874 14.708146 31.060874 32.798545v84.277056l0.093089 0.06206z m-389.641749 0h-0.03103H138.675213V32.798545C138.706243 14.708146 152.607613 0 169.736087 0h329.102524v117.106631z" fill="#5C6B77" p-id="864"></path></svg>